<?xml version="1.0" standalone="no"?>
<!DOCTYPE svg PUBLIC "-//W3C//DTD SVG 20010904//EN"
 "http://www.w3.org/TR/2001/REC-SVG-20010904/DTD/svg10.dtd">
<svg version="1.0" xmlns="http://www.w3.org/2000/svg"
 width="437.000000pt" height="151.000000pt" viewBox="0 0 437.000000 151.000000"
 preserveAspectRatio="xMidYMid meet">

<g transform="translate(0.000000,151.000000) scale(0.100000,-0.100000)"
fill="#000000" stroke="none">
<path d="M503 1291 c-12 -20 -72 -102 -134 -181 -208 -268 -261 -364 -267
-480 -2 -42 1 -95 8 -118 11 -44 36 -65 49 -43 5 8 22 10 49 5 l42 -7 -16 39
c-9 22 -17 64 -17 94 -1 60 16 102 86 204 38 56 211 275 220 279 6 2 174 -205
217 -268 27 -40 33 -43 55 -35 44 17 85 40 85 48 0 14 -96 149 -200 283 -54
69 -111 146 -127 171 l-29 46 -21 -37z"/>
<path d="M3401 1208 c-5 -13 -59 -148 -120 -300 -61 -152 -111 -282 -111 -287
0 -15 46 -14 57 2 5 6 22 45 37 85 l28 73 121 -3 121 -3 31 -80 c27 -70 34
-80 58 -83 35 -4 35 10 -2 101 -16 40 -50 124 -74 187 -25 63 -61 157 -81 207
-20 51 -36 97 -36 102 0 22 -21 21 -29 -1z m29 -151 c0 -7 16 -52 35 -101 19
-49 35 -95 35 -103 0 -10 -21 -13 -84 -13 -47 0 -87 4 -90 9 -5 7 30 103 74
209 10 23 30 22 30 -1z"/>
<path d="M3739 1226 c-2 -2 -3 -142 -1 -311 l3 -306 27 3 27 3 5 228 5 228
180 -208 c99 -114 195 -223 212 -243 l33 -35 -3 315 -2 315 -30 0 -30 0 -3
-227 c-1 -126 -5 -228 -8 -228 -3 0 -16 12 -28 27 -16 21 -335 391 -375 436
-4 4 -9 5 -12 3z"/>
<path d="M1263 1201 c-138 -63 -210 -249 -153 -400 11 -32 41 -81 66 -109 55
-63 113 -87 205 -86 57 1 73 6 121 37 30 19 64 48 75 63 28 40 53 117 53 164
l0 40 -116 0 -115 0 3 -27 c3 -26 4 -26 74 -24 89 3 102 -8 78 -68 -9 -23 -36
-59 -61 -81 -78 -68 -174 -65 -255 8 -103 92 -117 245 -35 354 89 117 249 122
336 13 22 -29 47 -28 58 0 7 21 -57 89 -109 116 -51 26 -167 26 -225 0z"/>
<path d="M1760 1215 c0 -3 0 -139 0 -302 l-1 -298 141 -3 140 -3 0 31 0 30
-110 0 -110 0 0 120 0 119 103 3 102 3 3 28 3 27 -106 0 -106 0 3 93 3 92 108
3 107 3 0 29 0 30 -140 0 c-77 0 -140 -2 -140 -5z"/>
<path d="M2295 1199 c-191 -95 -230 -359 -77 -516 55 -56 101 -75 187 -76 87
-2 147 25 205 90 131 149 95 396 -72 492 -46 27 -62 31 -128 31 -54 -1 -86 -6
-115 -21z m205 -57 c81 -50 121 -114 128 -202 5 -80 -8 -133 -48 -187 -34 -47
-116 -93 -164 -93 -81 0 -168 56 -206 130 -25 50 -35 134 -21 185 23 88 102
174 172 188 37 7 111 -4 139 -21z"/>
<path d="M2869 1197 c-61 -41 -86 -125 -55 -185 20 -39 48 -62 134 -108 91
-48 114 -80 102 -145 -11 -60 -49 -94 -105 -94 -34 0 -50 6 -74 29 -16 15 -32
39 -36 53 -4 19 -10 23 -28 17 -30 -9 -30 -8 -22 -44 10 -47 74 -106 123 -115
56 -9 112 9 149 47 45 48 53 70 53 138 0 57 -2 63 -37 99 -21 22 -69 56 -108
76 -38 20 -78 46 -87 57 -35 40 -16 107 38 133 40 19 74 12 105 -21 26 -28 41
-30 59 -9 10 12 8 20 -12 44 -31 39 -59 51 -117 51 -33 0 -58 -7 -82 -23z"/>
<path d="M840 694 c-120 -49 -228 -84 -259 -85 l-26 0 25 -11 c25 -10 175 -5
233 8 28 7 28 6 21 -32 -3 -22 -12 -54 -20 -71 l-13 -33 40 0 c21 0 39 -4 39
-9 0 -5 9 -11 19 -14 16 -4 22 5 36 50 18 58 18 204 0 222 -6 6 -40 -3 -95
-25z"/>
<path d="M1185 499 c-47 -14 -75 -64 -75 -136 0 -52 4 -64 30 -95 36 -42 74
-52 136 -37 42 11 44 13 44 47 l0 36 17 -24 c28 -40 41 -51 75 -61 90 -25 168
37 168 136 0 96 -67 157 -155 141 -61 -12 -121 -91 -112 -149 4 -33 -11 -57
-37 -57 -9 0 -16 -4 -16 -10 0 -5 -11 -10 -25 -10 -14 0 -25 5 -25 10 0 6 -5
10 -11 10 -43 0 -53 87 -14 125 24 25 85 35 85 15 0 -5 9 -10 21 -10 13 0 18
-4 13 -12 -4 -7 -3 -8 4 -4 7 4 12 22 12 41 0 28 -5 35 -31 44 -37 13 -62 13
-104 0z m317 -71 c10 -12 21 -32 24 -45 8 -29 -14 -83 -32 -83 -8 0 -14 -4
-14 -10 0 -5 -13 -10 -30 -10 -16 0 -30 5 -30 10 0 6 -6 10 -13 10 -14 0 -37
40 -37 65 0 25 23 65 37 65 7 0 13 5 13 10 0 20 62 11 82 -12z"/>
<path d="M1833 503 l-43 -4 0 -81 0 -82 -42 45 c-24 25 -56 61 -72 82 -20 25
-38 37 -54 37 -20 0 -23 -4 -18 -22 3 -13 6 -74 6 -135 l0 -113 25 0 c25 0 25
1 25 80 0 47 4 80 10 80 6 0 10 -3 10 -7 0 -5 21 -30 46 -57 25 -27 52 -59 61
-72 9 -14 25 -24 39 -24 24 0 24 1 24 110 0 107 1 110 23 110 22 0 22 -2 19
-110 l-4 -110 31 0 31 0 0 110 0 110 30 0 c25 0 30 4 30 24 0 19 -6 26 -27 29
-30 6 -83 6 -150 0z"/>
<path d="M2033 503 c-10 -3 -13 -41 -13 -139 l0 -134 26 0 c26 0 26 2 21 47
l-5 46 26 -46 c21 -39 30 -47 54 -47 23 0 28 4 28 25 0 14 -6 25 -13 25 -7 0
-20 15 -29 33 -15 32 -15 34 8 54 45 40 24 116 -35 133 -39 11 -49 11 -68 3z
m62 -66 c9 -9 10 -19 3 -30 -15 -28 -35 -20 -34 13 1 33 10 37 31 17z"/>
<path d="M2264 503 c-22 -4 -64 -45 -83 -81 -48 -90 47 -216 149 -197 97 18
140 134 83 223 -35 54 -77 69 -149 55z m76 -63 c0 -5 7 -10 16 -10 8 0 13 -4
10 -9 -4 -5 -1 -11 5 -13 6 -2 11 -21 11 -43 0 -22 -5 -41 -11 -43 -6 -2 -9
-8 -5 -13 3 -5 -2 -9 -10 -9 -9 0 -16 -4 -16 -10 0 -5 -13 -10 -30 -10 -16 0
-30 5 -30 10 0 6 -5 10 -11 10 -22 0 -39 30 -39 69 0 23 5 41 11 41 5 0 7 5 4
10 -3 6 1 10 9 10 9 0 16 5 16 10 0 6 16 10 35 10 19 0 35 -4 35 -10z"/>
<path d="M2678 503 c-16 -4 -18 -19 -18 -139 l0 -134 59 0 c65 0 100 19 126
70 27 53 13 133 -32 178 -23 23 -93 36 -135 25z m72 -63 c0 -5 9 -10 19 -10
22 0 34 -28 33 -72 -1 -34 -23 -58 -52 -58 -12 0 -18 -4 -15 -10 3 -5 -1 -10
-9 -10 -13 0 -16 15 -16 85 0 78 2 85 20 85 11 0 20 -4 20 -10z"/>
<path d="M2893 503 c-10 -3 -13 -41 -13 -139 l0 -134 76 0 c72 0 75 1 72 23
-3 19 -10 22 -50 25 -47 3 -48 4 -48 38 0 34 0 34 44 34 49 0 61 9 51 40 -5
16 -15 20 -51 20 -37 0 -44 3 -44 19 0 17 8 20 48 23 39 2 48 7 50 24 2 15 -4
23 -20 28 -27 7 -97 7 -115 -1z"/>
<path d="M3148 503 c-16 -4 -18 -19 -18 -139 l0 -134 31 0 31 0 -4 55 c-5 53
-4 55 21 55 13 0 35 10 48 22 l23 21 0 -76 0 -77 84 0 84 0 12 36 c11 33 14
35 53 32 37 -3 42 -6 49 -35 7 -28 13 -33 38 -33 25 0 30 4 30 25 0 14 -3 25
-8 25 -4 0 -12 15 -19 33 -64 179 -68 187 -88 187 -16 0 -26 -14 -44 -62 -61
-156 -62 -158 -98 -158 l-33 0 0 110 0 110 -30 0 c-20 0 -30 -5 -30 -15 0 -19
-9 -19 -24 -1 -12 15 -80 27 -108 19z m68 -62 c-4 -5 -1 -11 5 -13 16 -5 -1
-38 -20 -38 -13 0 -18 8 -18 30 0 23 5 30 19 30 11 0 17 -4 14 -9z m71 -33
c-3 -7 -5 -2 -5 12 0 14 2 19 5 13 2 -7 2 -19 0 -25z m237 -33 c4 -10 -1 -15
-16 -15 -17 0 -18 2 -8 15 7 8 14 15 15 15 2 0 5 -7 9 -15z"/>
<path d="M3703 503 c-13 -2 -36 -21 -53 -41 -26 -32 -30 -44 -30 -97 0 -52 4
-64 29 -93 80 -91 205 -49 219 74 l5 45 -64 -3 c-64 -3 -64 -3 -67 -35 -3 -30
-1 -32 35 -36 33 -3 35 -5 16 -12 -13 -4 -20 -11 -17 -16 3 -5 -9 -9 -25 -9
-17 0 -31 5 -31 10 0 6 -5 10 -11 10 -19 0 -35 25 -38 62 -2 29 3 43 23 63 25
25 86 36 86 15 0 -5 7 -10 15 -10 8 0 15 -5 15 -11 0 -18 45 -5 48 14 4 22
-25 53 -63 67 -27 10 -51 11 -92 3z"/>
<path d="M4123 498 c-12 -6 -27 -24 -32 -40 -14 -40 9 -80 60 -105 45 -21 55
-39 35 -59 -21 -20 -44 -17 -51 6 -9 29 -55 27 -56 -2 -1 -27 -29 30 -68 136
-20 54 -29 66 -47 66 -16 0 -24 -8 -28 -27 -7 -28 -59 -162 -77 -195 -17 -34
-11 -50 19 -46 21 2 29 10 37 36 8 30 12 32 52 32 40 0 43 -2 51 -32 7 -28 13
-34 41 -36 27 -3 33 0 28 12 -4 9 -2 16 3 16 6 0 10 -4 10 -9 0 -17 65 -32 91
-22 36 13 51 36 53 80 1 45 -18 71 -70 96 -20 9 -33 22 -31 28 5 15 47 22 47
8 0 -6 11 -11 25 -11 21 0 25 5 25 29 0 24 -6 31 -31 40 -38 13 -57 13 -86 -1z
m-143 -129 c0 -5 -7 -9 -15 -9 -9 0 -12 6 -9 15 6 15 24 11 24 -6z"/>
<path d="M2450 365 l0 -135 60 0 c57 0 60 1 60 25 0 22 -4 25 -32 25 l-33 0 3
110 3 110 -30 0 -31 0 0 -135z"/>
</g>
</svg>
